<svg width="38" height="38" viewBox="0 0 38 38" fill="none" xmlns="http://www.w3.org/2000/svg">
<g clip-path="url(#clip0_3134_2097)">
<path d="M12.415 18.2569C12.1531 19.4546 11.0847 20.3542 9.80959 20.3542C9.46964 20.3542 9.19403 20.6297 9.19403 20.9698C9.19403 21.3098 9.46964 21.5853 9.80959 21.5853C11.7608 21.5853 13.3816 20.1443 13.6642 18.2707C14.8589 18.1415 15.9617 17.6092 16.8155 16.7378C17.0534 16.495 17.0494 16.1052 16.8065 15.8673C16.5637 15.6296 16.174 15.6333 15.936 15.8762C15.181 16.6469 14.1712 17.0713 13.0925 17.0713C10.8976 17.0713 9.11196 15.2856 9.11196 13.0907C9.11196 12.7507 8.83636 12.4752 8.49641 12.4752C8.15646 12.4752 7.88086 12.7507 7.88086 13.0907C7.88086 15.7347 9.86039 17.9235 12.415 18.2569Z" fill="white"/>
<path d="M15.0212 23.5961C15.0212 23.2561 14.7456 22.9806 14.4057 22.9806C11.532 22.9806 9.19403 25.3185 9.19403 28.1922C9.19403 28.2219 9.1951 28.2517 9.19559 28.2815C8.96669 28.2507 8.7336 28.2333 8.49641 28.2333C8.15646 28.2333 7.88086 28.5088 7.88086 28.8488C7.88086 29.1888 8.15646 29.4644 8.49641 29.4644C10.6913 29.4644 12.477 31.25 12.477 33.4449C12.477 33.785 12.7526 34.0605 13.0925 34.0605C13.4325 34.0605 13.7081 33.785 13.7081 33.4449C13.7081 31.2609 12.357 29.3875 10.4472 28.6135C10.4326 28.4741 10.4251 28.333 10.4251 28.1922C10.4251 25.9973 12.2108 24.2117 14.4057 24.2117C14.7456 24.2117 15.0212 23.9361 15.0212 23.5961Z" fill="white"/>
<path d="M36.0312 18.3434C36.0312 16.942 35.4714 15.614 34.482 14.6373C34.6387 14.136 34.718 13.6175 34.718 13.0907C34.718 10.5568 32.8999 8.44051 30.4999 7.97516C30.6834 7.51793 30.7785 7.02778 30.7785 6.52484C30.7785 4.91973 29.8032 3.53843 28.4143 2.94143C26.1002 1.09839 23.5693 0 21.6273 0C20.5478 0 19.5905 0.530851 19.0009 1.34469C18.4114 0.530851 17.4541 0 16.3746 0C14.4326 0 11.9017 1.09839 9.58761 2.94143C8.19868 3.53843 7.2234 4.91973 7.2234 6.52484C7.2234 7.02778 7.31853 7.51793 7.50196 7.97516C5.10197 8.44051 3.28388 10.5568 3.28388 13.0907C3.28388 13.6175 3.36308 14.1359 3.51984 14.6373C2.53044 15.614 1.9707 16.942 1.9707 18.3434C1.9707 19.4389 2.31123 20.4561 2.89099 21.296C2.28849 22.167 1.9707 23.183 1.9707 24.2527C1.9707 26.1476 3.00376 27.8838 4.6394 28.7992C4.61125 29.0333 4.59705 29.2695 4.59705 29.5054C4.59705 32.0615 6.26438 34.3214 8.68349 35.0916C9.73575 36.8924 11.6525 38 13.7482 38C16.0459 38 18.0381 36.672 19.0009 34.7438C19.9637 36.672 21.956 38 24.2536 38C26.3494 38 28.2661 36.8924 29.3184 35.0916C31.7375 34.3213 33.4048 32.0614 33.4048 29.5054C33.4048 29.2695 33.3906 29.0333 33.3625 28.7992C34.9981 27.8838 36.0312 26.1476 36.0312 24.2527C36.0312 23.183 35.7134 22.167 35.1109 21.296C35.6907 20.4561 36.0312 19.4389 36.0312 18.3434ZM13.7482 36.7689C12.0223 36.7689 10.4496 35.8173 9.64383 34.2857C9.56397 34.1339 9.42461 34.0224 9.25907 33.9778C7.239 33.4342 5.82816 31.5951 5.82816 29.5054C5.82816 29.1927 5.85967 28.8795 5.9218 28.5744C5.97942 28.2915 5.83259 28.0064 5.56872 27.889C4.13088 27.2499 3.2018 25.8224 3.2018 24.2527C3.2018 23.5387 3.38696 22.8563 3.74029 22.2518C4.65918 23.062 5.86394 23.5551 7.18237 23.5551C7.52232 23.5551 7.79792 23.2796 7.79792 22.9395C7.79792 22.5995 7.52232 22.324 7.18237 22.324C4.98748 22.324 3.2018 20.5383 3.2018 18.3434C3.2018 17.1619 3.72314 16.0483 4.63218 15.2886C4.83736 15.117 4.90836 14.8326 4.80782 14.5849C4.61347 14.1059 4.51498 13.6032 4.51498 13.0907C4.51498 10.8958 6.30065 9.11015 8.49554 9.11015C10.6904 9.11015 12.4761 10.8958 12.4761 13.0907C12.4761 13.4307 12.7517 13.7063 13.0917 13.7063C13.4316 13.7063 13.7072 13.4307 13.7072 13.0907C13.7072 10.3296 11.5485 8.06429 8.83032 7.89095C8.58394 7.47911 8.4545 7.0108 8.4545 6.52484C8.4545 5.4276 9.12061 4.48326 10.0695 4.07421C10.1062 4.06329 10.1422 4.04901 10.1769 4.03095C10.4709 3.91917 10.7892 3.85745 11.1219 3.85745C12.1525 3.85745 13.0725 4.43369 13.523 5.36145C13.6716 5.66733 14.0399 5.79488 14.3457 5.64624C14.6515 5.49777 14.779 5.12951 14.6304 4.8237C14.1162 3.76471 13.1429 3.00356 12.022 2.73395C13.593 1.77533 15.1397 1.2311 16.3746 1.2311C17.4833 1.2311 18.3854 2.13309 18.3854 3.2419V11.2072C17.8323 10.7684 17.1338 10.5054 16.3746 10.5054C16.0346 10.5054 15.759 10.7809 15.759 11.121C15.759 11.461 16.0346 11.7365 16.3746 11.7365C17.4833 11.7365 18.3854 12.6385 18.3854 13.7473V28.5434C17.6201 27.556 16.5411 26.8108 15.2719 26.4697C14.9437 26.3818 14.606 26.5762 14.5178 26.9045C14.4295 27.2329 14.6242 27.5705 14.9525 27.6587C16.9737 28.2017 18.3854 30.0411 18.3854 32.1317C18.3854 34.6887 16.3052 36.7689 13.7482 36.7689ZM32.4332 27.8891C32.1693 28.0065 32.0225 28.2915 32.0801 28.5744C32.1422 28.8796 32.1737 29.1928 32.1737 29.5055C32.1737 31.5952 30.7629 33.4343 28.7428 33.9779C28.5773 34.0225 28.4378 34.134 28.3581 34.2858C27.5523 35.8173 25.9796 36.7689 24.2536 36.7689C21.6967 36.7689 19.6165 34.6887 19.6165 32.1317C19.6165 31.9587 19.6084 31.787 19.5934 31.6171C19.608 31.5645 19.6165 31.5092 19.6165 31.4519V11.121C19.6165 10.0121 20.5186 9.11015 21.6273 9.11015C21.9672 9.11015 22.2428 8.83463 22.2428 8.4946C22.2428 8.15457 21.9672 7.87905 21.6273 7.87905C20.8681 7.87905 20.1696 8.1421 19.6165 8.58086V3.2419C19.6165 2.13309 20.5186 1.2311 21.6273 1.2311C22.8622 1.2311 24.4088 1.77533 25.9799 2.73395C24.859 3.00348 23.8857 3.76471 23.3714 4.8237C23.2229 5.12959 23.3504 5.49785 23.6562 5.64624C23.962 5.79479 24.3303 5.66733 24.4789 5.36145C24.9294 4.43369 25.8494 3.85745 26.88 3.85745C27.2126 3.85745 27.5311 3.91917 27.825 4.03095C27.8596 4.04901 27.8956 4.06321 27.9321 4.07413C28.8812 4.48318 29.5474 5.42752 29.5474 6.52484C29.5474 7.0108 29.4179 7.47911 29.1716 7.89095C26.4534 8.06429 24.2947 10.3296 24.2947 13.0907C24.2947 13.4307 24.5703 13.7063 24.9102 13.7063C25.2502 13.7063 25.5258 13.4307 25.5258 13.0907C25.5258 10.8958 27.3115 9.11015 29.5063 9.11015C31.7012 9.11015 33.4869 10.8958 33.4869 13.0907C33.4869 13.6032 33.3884 14.1059 33.1942 14.5849C33.0936 14.8327 33.1646 15.117 33.3698 15.2886C34.2788 16.0483 34.8001 17.1619 34.8001 18.3434C34.8001 20.5383 33.0144 22.324 30.8195 22.324C30.4796 22.324 30.204 22.5995 30.204 22.9395C30.204 23.2796 30.4796 23.5551 30.8195 23.5551C32.1379 23.5551 33.3427 23.062 34.2616 22.2518C34.615 22.8563 34.8001 23.5387 34.8001 24.2527C34.8001 25.8224 33.871 27.2499 32.4332 27.8891Z" fill="white"/>
<path d="M29.5059 19.6976C28.2309 19.6976 27.1624 18.798 26.9005 17.6003C29.4551 17.2669 31.4347 15.0781 31.4347 12.4341C31.4347 12.0941 31.1591 11.8186 30.8191 11.8186C30.4792 11.8186 30.2036 12.0941 30.2036 12.4341C30.2036 14.629 28.4179 16.4147 26.223 16.4147C25.1443 16.4147 24.1345 15.9903 23.3795 15.2196C23.1416 14.9768 22.7519 14.9728 22.509 15.2107C22.2662 15.4487 22.2621 15.8384 22.5001 16.0812C23.3538 16.9526 24.4566 17.4849 25.6513 17.6141C25.9339 19.4878 27.5547 20.9287 29.5059 20.9287C29.8459 20.9287 30.1215 20.6532 30.1215 20.3132C30.1215 19.9731 29.8459 19.6976 29.5059 19.6976Z" fill="white"/>
<path d="M27.5366 26.9201C27.2994 26.9201 27.0663 26.9375 26.8374 26.9683C26.8379 26.9386 26.8389 26.9088 26.8389 26.8791C26.8389 24.0053 24.501 21.6674 21.6273 21.6674C21.2873 21.6674 21.0117 21.9429 21.0117 22.2829C21.0117 22.623 21.2873 22.8985 21.6273 22.8985C23.8222 22.8985 25.6078 24.6842 25.6078 26.8791C25.6078 27.0197 25.6004 27.1609 25.5858 27.3003C23.676 28.0743 22.3249 29.9477 22.3249 32.1318C22.3249 32.4718 22.6005 32.7473 22.9404 32.7473C23.2804 32.7473 23.556 32.4718 23.556 32.1318C23.556 29.9369 25.3417 28.1512 27.5366 28.1512C27.8765 28.1512 28.1521 27.8757 28.1521 27.5356C28.1521 27.1956 27.8765 26.9201 27.5366 26.9201Z" fill="white"/>
</g>
<defs>
<clipPath id="clip0_3134_2097">
<rect width="38" height="38" fill="white"/>
</clipPath>
</defs>
</svg>
