<svg width="42" height="42" viewBox="0 0 42 42" fill="none" xmlns="http://www.w3.org/2000/svg">
<path d="M25.5439 31.7727C18.6216 33.7395 11.3897 28.2131 11.4975 20.9999C11.5007 18.0421 12.6771 15.2064 14.7686 13.1149C16.8601 11.0234 19.6958 9.847 22.6536 9.84372C23.278 9.84409 23.9013 9.89791 24.5166 10.0046C24.6878 10.0338 24.8637 9.99386 25.0056 9.8936C25.1474 9.79335 25.2438 9.64094 25.2735 9.46977C25.3032 9.2986 25.2638 9.12264 25.1639 8.98046C25.0641 8.83829 24.912 8.7415 24.7409 8.7113C22.9536 8.41394 21.1231 8.50854 19.376 8.98855C17.6289 9.46857 16.007 10.3225 14.6226 11.4913C13.2382 12.6601 12.1243 14.1158 11.358 15.7576C10.5918 17.3995 10.1915 19.1882 10.1849 21C10.0648 29.0642 18.1531 35.2431 25.8927 33.0383C26.0575 32.9894 26.1966 32.8779 26.2801 32.7275C26.3636 32.5772 26.3848 32.4002 26.3391 32.2344C26.2934 32.0686 26.1845 31.9274 26.0358 31.8411C25.8871 31.7547 25.7105 31.7302 25.5439 31.7727Z" fill="white"/>
<path d="M22.6543 6.89062C22.7405 6.89065 22.8258 6.87369 22.9055 6.84072C22.9851 6.80774 23.0574 6.75941 23.1184 6.69846C23.1793 6.63752 23.2277 6.56517 23.2606 6.48554C23.2936 6.40591 23.3106 6.32056 23.3105 6.23438V3.28125C23.3105 3.1072 23.2414 2.94028 23.1183 2.81721C22.9953 2.69414 22.8283 2.625 22.6543 2.625C22.4802 2.625 22.3133 2.69414 22.1903 2.81721C22.0672 2.94028 21.998 3.1072 21.998 3.28125V6.23438C21.998 6.32056 22.015 6.40591 22.048 6.48554C22.0809 6.56517 22.1293 6.63752 22.1902 6.69847C22.2511 6.75941 22.3235 6.80775 22.4031 6.84072C22.4828 6.87369 22.5681 6.89065 22.6543 6.89062Z" fill="white"/>
<path d="M11.7497 11.0232C11.8736 11.1424 12.0392 11.2082 12.2111 11.2065C12.3829 11.2048 12.5472 11.1358 12.6688 11.0143C12.7903 10.8928 12.8593 10.7284 12.8609 10.5566C12.8626 10.3847 12.7968 10.2191 12.6776 10.0952L10.5897 8.00699C10.4659 7.88787 10.3002 7.82208 10.1284 7.82376C9.95656 7.82544 9.79224 7.89445 9.67073 8.01596C9.54922 8.13748 9.48022 8.3018 9.47855 8.47364C9.47688 8.64548 9.54267 8.81111 9.6618 8.93497L11.7497 11.0232Z" fill="white"/>
<path d="M7.8877 20.3438H4.93458C4.76274 20.3471 4.59908 20.4177 4.47875 20.5404C4.35841 20.6631 4.29101 20.8282 4.29102 21C4.29102 21.1719 4.35843 21.3369 4.47878 21.4596C4.59912 21.5823 4.76278 21.6529 4.93462 21.6562H7.8877C8.05954 21.6529 8.2232 21.5823 8.34354 21.4596C8.46387 21.3369 8.53128 21.1719 8.53128 21C8.53128 20.8281 8.46387 20.6631 8.34354 20.5404C8.2232 20.4177 8.05954 20.3471 7.8877 20.3438Z" fill="white"/>
<path d="M11.7489 30.9768L9.66094 33.065C9.60001 33.126 9.55168 33.1983 9.5187 33.2779C9.48572 33.3575 9.46875 33.4428 9.46875 33.529C9.46875 33.6152 9.48572 33.7005 9.5187 33.7801C9.55168 33.8597 9.60001 33.9321 9.66094 33.993C9.72187 34.0539 9.79421 34.1023 9.87382 34.1353C9.95343 34.1682 10.0388 34.1852 10.1249 34.1852C10.2111 34.1852 10.2964 34.1682 10.376 34.1353C10.4556 34.1023 10.528 34.0539 10.5889 33.993L12.6769 31.9047C12.796 31.7809 12.8618 31.6152 12.8601 31.4434C12.8585 31.2715 12.7895 31.1072 12.6679 30.9857C12.5464 30.8642 12.3821 30.7952 12.2102 30.7935C12.0384 30.7918 11.8727 30.8576 11.7489 30.9768Z" fill="white"/>
<path d="M22.6543 35.1094C22.5681 35.1094 22.4828 35.1263 22.4031 35.1593C22.3235 35.1923 22.2511 35.2406 22.1902 35.3015C22.1293 35.3625 22.0809 35.4348 22.048 35.5145C22.015 35.5941 21.998 35.6794 21.998 35.7656V38.7188C21.998 38.8928 22.0672 39.0597 22.1903 39.1828C22.3133 39.3059 22.4802 39.375 22.6543 39.375C22.8283 39.375 22.9953 39.3059 23.1183 39.1828C23.2414 39.0597 23.3105 38.8928 23.3105 38.7188V35.7656C23.3106 35.6794 23.2936 35.5941 23.2606 35.5145C23.2277 35.4348 23.1793 35.3625 23.1184 35.3015C23.0574 35.2406 22.9851 35.1923 22.9055 35.1593C22.8258 35.1263 22.7405 35.1094 22.6543 35.1094Z" fill="white"/>
<path d="M37.611 15.4869C37.5521 15.3918 37.47 15.3134 37.3723 15.2589C37.2746 15.2045 37.1647 15.1758 37.0528 15.1758H33.4639L35.4743 7.13191C35.4976 7.03525 35.4988 6.93457 35.4778 6.83738C35.4568 6.74019 35.4141 6.649 35.3529 6.57061C35.2918 6.49222 35.2137 6.42864 35.1245 6.38463C35.0354 6.34061 34.9374 6.31729 34.838 6.31641H28.1935C28.0558 6.31635 27.9215 6.35965 27.8098 6.44018C27.6981 6.5207 27.6146 6.63435 27.5712 6.76501L23.1415 20.0541C23.1096 20.1527 23.1013 20.2574 23.1174 20.3598C23.1334 20.4623 23.1734 20.5594 23.2339 20.6435C23.2945 20.7277 23.3741 20.7963 23.4661 20.844C23.5581 20.8917 23.6601 20.917 23.7638 20.918H29.6335L27.5461 33.4428C27.5232 33.5967 27.5556 33.7538 27.6375 33.8861C27.7194 34.0184 27.8455 34.1174 27.9935 34.1655C28.1415 34.2137 28.3017 34.2078 28.4458 34.149C28.5899 34.0902 28.7084 33.9822 28.7805 33.8443L37.6398 16.1256C37.6899 16.0255 37.7136 15.9143 37.7086 15.8025C37.7035 15.6907 37.6699 15.5821 37.611 15.4869ZM29.5585 29.3537L31.0555 20.3697C31.0705 20.2758 31.065 20.1798 31.0394 20.0882C31.0138 19.9966 30.9688 19.9116 30.9073 19.839C30.8459 19.7665 30.7695 19.708 30.6833 19.6677C30.5972 19.6274 30.5034 19.6062 30.4083 19.6055H24.6744L28.6664 7.62891H33.9971L31.9867 15.6728C31.9634 15.7694 31.9621 15.8701 31.9831 15.9674C32.0042 16.0646 32.0468 16.1558 32.108 16.2342C32.1692 16.3126 32.2473 16.3762 32.3365 16.4202C32.4257 16.4642 32.5237 16.4874 32.6231 16.4883H35.9909L29.5585 29.3537Z" fill="white"/>
</svg>
