<svg width="42" height="42" viewBox="0 0 42 42" fill="none" xmlns="http://www.w3.org/2000/svg">
<path d="M33.3039 9.02408C33.325 7.09122 32.6438 5.29038 31.4364 4.08298C30.0463 2.69294 28.5031 2.03989 26.8375 2.14307C24.126 2.31098 21.8746 4.48289 20.9998 5.4506C20.1251 4.48289 17.8737 2.31098 15.1622 2.14307C13.4985 2.03989 11.9533 2.69294 10.5633 4.08298C9.35589 5.29038 8.67464 7.09122 8.69579 9.02408C8.7195 11.2889 9.68914 13.4518 11.4253 15.1155C13.7901 17.3804 18.0973 21.0346 19.8399 22.5003C20.1757 22.7829 20.5878 22.9239 20.9998 22.9239C21.4119 22.9239 21.824 22.7823 22.1598 22.5003C23.9023 21.0346 28.2096 17.3804 30.5744 15.1155C32.3105 13.4518 33.2802 11.2889 33.3039 9.02408ZM21.5266 21.7466C21.2216 22.003 20.7781 22.003 20.473 21.7466C18.7382 20.2874 14.4502 16.6498 12.1059 14.4042C10.5626 12.9257 9.70131 11.0114 9.68017 9.01319C9.66222 7.34372 10.2377 5.80051 11.2593 4.77897C12.3628 3.67539 13.5632 3.11719 14.8308 3.11719C14.9206 3.11719 15.0109 3.1204 15.1013 3.12552C18.0864 3.31074 20.5096 6.3805 20.6115 6.5106C20.7973 6.75028 21.2024 6.75028 21.3882 6.5106C21.4901 6.3805 23.9132 3.31073 26.8984 3.12552C28.2667 3.04862 29.5586 3.5972 30.7404 4.77897C31.762 5.80051 32.3375 7.34372 32.3195 9.01319C32.2984 11.0114 31.437 12.9257 29.8938 14.4042C27.5495 16.6498 23.2615 20.2874 21.5266 21.7466Z" fill="white"/>
<path d="M35.7663 13.9453C34.0475 13.9453 32.6491 15.3437 32.6491 17.0625V22.3067C31.8429 22.1209 30.9566 22.2939 30.2741 22.8489L25.2433 26.9415C22.9964 28.7699 22.0991 31.7384 22.9579 34.505C23.3001 35.6086 23.4738 36.7545 23.4738 37.91V39.375C23.4738 39.6467 23.6943 39.8672 23.966 39.8672H34.4538C34.7256 39.8672 34.946 39.6467 34.946 39.375V36.1463C34.946 34.4768 35.369 32.8195 36.1681 31.3539L37.5409 28.8365C38.4195 27.2267 38.8835 25.406 38.8835 23.5724V17.0625C38.8835 15.3437 37.4851 13.9453 35.7663 13.9453ZM37.8991 23.5724C37.8991 25.2419 37.4762 26.8992 36.677 28.3649L35.3043 30.8822C34.4256 32.4921 33.9616 34.3128 33.9616 36.1463V38.8828H24.4582V37.91C24.4582 36.6552 24.2698 35.4112 23.8974 34.2128C23.1591 31.8326 23.9314 29.2781 25.8649 27.7054L30.8957 23.6128C31.6103 23.0316 32.6684 23.0982 33.3054 23.7634C33.9424 24.4293 33.9616 25.4893 33.3496 26.1769L29.4922 30.5169C29.3115 30.7201 29.3301 31.0309 29.5332 31.2116C29.7357 31.3917 30.0466 31.3744 30.2279 31.1706L34.0853 26.8313C35.0357 25.7629 35.0056 24.1165 34.0167 23.0828C33.8975 22.9585 33.7694 22.8476 33.6335 22.7502V17.0625C33.6335 15.8865 34.5903 14.9297 35.7663 14.9297C36.9423 14.9297 37.8991 15.8865 37.8991 17.0625L37.8991 23.5724Z" fill="white"/>
<path d="M16.7574 26.9415L11.7266 22.8489C11.0441 22.2939 10.1584 22.1202 9.35156 22.3067V17.0625C9.35156 15.3437 7.95319 13.9453 6.23438 13.9453C4.51556 13.9453 3.11719 15.3437 3.11719 17.0625V23.5724C3.11719 25.406 3.58118 27.2267 4.45981 28.8365L5.83255 31.3539C6.63171 32.8195 7.05469 34.4768 7.05469 36.1463V39.375C7.05469 39.6467 7.27515 39.8672 7.54688 39.8672H18.0347C18.3064 39.8672 18.5269 39.6467 18.5269 39.375V37.91C18.5269 36.7545 18.7006 35.6086 19.0434 34.505C19.9016 31.7384 19.0043 28.7699 16.7574 26.9415ZM18.1033 34.2128C17.7309 35.4112 17.5425 36.6552 17.5425 37.91V38.8828H8.03906V36.1463C8.03906 34.3128 7.57507 32.4921 6.69644 30.8822L5.3237 28.3649C4.52454 26.8992 4.10156 25.2419 4.10156 23.5724V17.0625C4.10156 15.8865 5.05838 14.9297 6.23438 14.9297C7.41037 14.9297 8.36719 15.8865 8.36719 17.0625V22.7502C8.23132 22.8476 8.10315 22.9585 7.98395 23.0828C6.99509 24.1165 6.96497 25.7629 7.91538 26.8306L11.7728 31.1706C11.9541 31.375 12.2656 31.3923 12.4675 31.2116C12.6706 31.0309 12.6892 30.7201 12.5085 30.5169L8.65109 26.1763C8.03906 25.4893 8.05829 24.4293 8.69531 23.7634C9.3317 23.0969 10.3904 23.0316 11.105 23.6128L16.1358 27.7054C18.0693 29.2781 18.8416 31.8326 18.1033 34.2128Z" fill="white"/>
</svg>
