<svg width="42" height="42" viewBox="0 0 42 42" fill="none" xmlns="http://www.w3.org/2000/svg">
<g clip-path="url(#clip0_3134_2079)">
<path d="M31.5157 34.8516H30.5611C30.9755 34.1155 31.1518 33.2512 31.0511 32.3836L30.2838 25.7798C30.0414 23.694 28.7434 21.9149 26.8963 21.1368L24.921 20.3047C24.4621 20.1114 24.1538 19.6198 24.1538 19.084L24.1589 17.8944C25.5761 16.8973 26.5049 15.2503 26.5049 13.3896C26.5049 10.3537 24.0351 7.88385 20.9991 7.88385C17.9631 7.88385 15.4933 10.3537 15.4933 13.3896C15.4933 15.2503 16.422 16.8973 17.8394 17.8944L17.8444 19.0814C17.8444 19.6197 17.5362 20.1114 17.0773 20.3047L15.102 21.1368C13.2548 21.9149 11.9568 23.694 11.7144 25.7798L11.5788 26.9463C11.5397 27.2836 11.7814 27.5889 12.1187 27.628C12.1429 27.6308 12.1668 27.6322 12.1904 27.6322C12.4983 27.6322 12.7641 27.4015 12.8005 27.0882L12.9361 25.9217C13.1273 24.2756 14.1401 22.8765 15.5793 22.2702L17.5546 21.438C18.4777 21.0492 19.0743 20.1241 19.0743 19.0787L19.072 18.5466C19.6721 18.7716 20.3213 18.8955 20.9991 18.8955C21.6769 18.8955 22.3261 18.7716 22.9263 18.5466L22.924 19.0814C22.924 20.1241 23.5205 21.0493 24.4436 21.438L26.4189 22.2702C27.8581 22.8765 28.8709 24.2756 29.0621 25.9217L29.8294 32.5255C29.9231 33.3319 29.6771 34.1309 29.1547 34.7177C28.6823 35.2481 28.0468 35.5402 27.3652 35.5402H22.7256C22.9707 35.1446 23.1127 34.6788 23.1127 34.1802C23.1127 33.6816 22.9707 33.2158 22.7256 32.8202H24.8064C25.2626 32.8202 25.6864 32.6308 25.9999 32.2868C26.3275 31.9274 26.4891 31.4384 26.4433 30.9453L25.977 25.9292C25.9456 25.5911 25.6464 25.3421 25.3078 25.3739C24.9697 25.4053 24.721 25.705 24.7525 26.0431L25.2187 31.0592C25.2326 31.2085 25.1861 31.3541 25.0909 31.4584C25.046 31.5077 24.9493 31.5903 24.8065 31.5903H17.1916C17.0488 31.5903 16.9522 31.5077 16.9072 31.4584C16.8121 31.3541 16.7656 31.2085 16.7794 31.0592L17.2457 26.0431C17.2772 25.7049 17.0285 25.4053 16.6903 25.3739C16.352 25.3419 16.0526 25.5911 16.0211 25.9292L15.5549 30.9453C15.5091 31.4384 15.6707 31.9274 15.9983 32.2868C16.3117 32.6308 16.7355 32.8202 17.1917 32.8202H20.5228C21.2728 32.8202 21.8829 33.4303 21.8829 34.1802C21.8829 34.9301 21.2728 35.5402 20.5228 35.5402H14.6329C13.9513 35.5402 13.3158 35.2481 12.8435 34.7177C12.321 34.131 12.075 33.332 12.1688 32.5255L12.4758 29.8823C12.515 29.5449 12.2732 29.2396 11.9359 29.2005C11.5992 29.1614 11.2933 29.403 11.2541 29.7403L10.947 32.3836C10.8462 33.2513 11.0226 34.1156 11.437 34.8516H10.4824C8.51159 34.8516 6.9082 36.455 6.9082 38.4258C6.9082 40.3966 8.51159 42 10.4824 42H26.5834C26.9231 42 27.1984 41.7247 27.1984 41.3851C27.1984 41.0455 26.9231 40.7702 26.5834 40.7702H10.4824C9.18974 40.7702 8.1381 39.7185 8.1381 38.4259C8.1381 37.1332 9.18974 36.0816 10.4824 36.0816H12.5257C13.1388 36.5293 13.8649 36.7702 14.6328 36.7702H27.3653C28.1332 36.7702 28.8593 36.5293 29.4725 36.0816H31.5158C32.8084 36.0816 33.8601 37.1332 33.8601 38.4259C33.8601 39.7185 32.8084 40.7702 31.5158 40.7702H29.4461C29.1064 40.7702 28.8312 41.0455 28.8312 41.3851C28.8312 41.7247 29.1065 42 29.4461 42H31.5158C33.4866 42 35.09 40.3966 35.09 38.4258C35.0899 36.455 33.4865 34.8516 31.5157 34.8516ZM20.999 17.6656C18.6413 17.6656 16.7232 15.7474 16.7232 13.3896C16.7232 11.0319 18.6413 9.11374 20.999 9.11374C23.3568 9.11374 25.2749 11.0319 25.2749 13.3896C25.2749 15.7474 23.3568 17.6656 20.999 17.6656Z" fill="white"/>
<path d="M20.9997 6.21797C21.3394 6.21797 21.6146 5.94267 21.6146 5.60306V0.614906C21.6146 0.275297 21.3394 0 20.9997 0C20.66 0 20.3848 0.275297 20.3848 0.614906V5.60298C20.3848 5.94267 20.66 6.21797 20.9997 6.21797Z" fill="white"/>
<path d="M9.28218 7.7345L13.6019 10.2285C13.6988 10.2844 13.8045 10.311 13.9088 10.311C14.1213 10.311 14.3281 10.2007 14.4419 10.0034C14.6117 9.70923 14.5109 9.3332 14.2169 9.1634L9.89708 6.6694C9.60284 6.49943 9.22673 6.60041 9.05708 6.89449C8.88728 7.18866 8.9881 7.56477 9.28218 7.7345Z" fill="white"/>
<path d="M27.7802 18.4145L32.1 20.9085C32.1969 20.9644 32.3026 20.991 32.4069 20.991C32.6194 20.991 32.8261 20.8807 32.94 20.6834C33.1098 20.3892 33.0091 20.0132 32.7149 19.8434L28.3951 17.3494C28.1009 17.1794 27.7249 17.2804 27.5551 17.5745C27.3853 17.8687 27.4861 18.2448 27.7802 18.4145Z" fill="white"/>
<path d="M29.1852 13.1741C28.8455 13.1741 28.5703 13.4494 28.5703 13.789C28.5703 14.1286 28.8456 14.4039 29.1852 14.4039H31.6795C32.0191 14.4039 32.2944 14.1286 32.2944 13.789C32.2944 13.4494 32.0191 13.1741 31.6795 13.1741H29.1852Z" fill="white"/>
<path d="M10.318 13.1741C9.97842 13.1741 9.70312 13.4494 9.70312 13.789C9.70312 14.1286 9.97842 14.4039 10.318 14.4039H12.8123C13.152 14.4039 13.4272 14.1286 13.4272 13.789C13.4272 13.4494 13.1519 13.1741 12.8123 13.1741H10.318Z" fill="white"/>
<path d="M9.59021 20.991C9.69455 20.991 9.80029 20.9645 9.89708 20.9085L14.2169 18.4145C14.5109 18.2447 14.6117 17.8686 14.4419 17.5745C14.2722 17.2804 13.8959 17.1795 13.6019 17.3494L9.28218 19.8434C8.9881 20.0132 8.88728 20.3893 9.05708 20.6834C9.17094 20.8807 9.37766 20.991 9.59021 20.991Z" fill="white"/>
<path d="M28.0883 10.3111C28.1926 10.3111 28.2984 10.2845 28.3951 10.2286L32.7149 7.73458C33.009 7.56478 33.1098 7.18866 32.94 6.89458C32.7703 6.6005 32.3939 6.4996 32.1 6.66949L27.7802 9.16348C27.4861 9.33329 27.3853 9.70932 27.5551 10.0035C27.669 10.2008 27.8758 10.3111 28.0883 10.3111Z" fill="white"/>
<path d="M24.7841 7.23226C24.8809 7.28821 24.9867 7.31479 25.091 7.31479C25.3036 7.31479 25.5103 7.20445 25.6241 7.00717L27.2349 4.21729C27.4047 3.9232 27.3039 3.54709 27.0098 3.37729C26.7158 3.2074 26.3395 3.30813 26.1698 3.60238L24.559 6.39226C24.3892 6.68635 24.49 7.06238 24.7841 7.23226Z" fill="white"/>
<path d="M16.3729 7.00718C16.4869 7.20446 16.6935 7.31479 16.906 7.31479C17.0104 7.31479 17.1161 7.28813 17.2129 7.23227C17.507 7.06246 17.6078 6.68635 17.438 6.39227L15.8273 3.60239C15.6574 3.30822 15.2813 3.20749 14.9873 3.37729C14.6932 3.5471 14.5924 3.92321 14.7622 4.21729L16.3729 7.00718Z" fill="white"/>
</g>
<defs>
<clipPath id="clip0_3134_2079">
<rect width="42" height="42" fill="white"/>
</clipPath>
</defs>
</svg>
