<svg width="42" height="42" viewBox="0 0 42 42" fill="none" xmlns="http://www.w3.org/2000/svg">
<g clip-path="url(#clip0_3134_2144)">
<path d="M24.8139 13.5537C24.6232 13.4014 24.3821 13.3263 24.1387 13.3433H20.4559L23.9195 9.47636L24.2439 9.11685L24.4105 8.90641C24.4684 8.82508 24.5155 8.73663 24.5508 8.64335C24.5906 8.54285 24.6113 8.43576 24.6122 8.32769C24.6367 8.07198 24.5099 7.82536 24.2878 7.69635C23.9996 7.56417 23.6836 7.50389 23.3671 7.52098H19.0617C18.832 7.50531 18.6045 7.57392 18.4216 7.71389C18.2706 7.84246 18.1865 8.03296 18.1937 8.23123C18.1937 8.52936 18.2931 8.71054 18.4918 8.77488C18.7768 8.85588 19.0726 8.89139 19.3686 8.8801H22.1746C22.0576 9.04375 21.9057 9.23665 21.7186 9.45883L20.9996 10.2655L20.0263 11.3178L18.8951 12.5717C18.5035 13.0101 18.2463 13.3024 18.1235 13.4485C17.8451 13.7866 17.8797 14.2835 18.2024 14.5796C18.4337 14.7539 18.7204 14.838 19.0091 14.8164H24.1299C24.3749 14.8356 24.6185 14.7638 24.8139 14.6147C24.9628 14.4846 25.0464 14.2951 25.0419 14.0974C25.0494 13.8914 24.966 13.6926 24.8139 13.5537Z" fill="white"/>
<path d="M32.5728 18.0344C32.4194 17.9117 32.225 17.8522 32.0292 17.8678H29.0829L31.845 14.7813L32.1081 14.492L32.2747 14.2903C32.3217 14.2254 32.36 14.1547 32.3887 14.0798C32.4219 13.9991 32.4398 13.9129 32.4413 13.8255C32.4633 13.6209 32.3639 13.4222 32.187 13.317C31.9565 13.2111 31.7037 13.1629 31.4504 13.1767H27.9781C27.7952 13.1665 27.6145 13.2225 27.4695 13.3345C27.3483 13.4364 27.2805 13.5884 27.2854 13.7466C27.2854 13.9804 27.3643 14.1266 27.5221 14.1851C27.7503 14.2483 27.9871 14.2749 28.2236 14.264H30.4684C30.3807 14.3955 30.2579 14.5446 30.1001 14.7287L29.5214 15.3776L28.7673 16.2544L27.8904 17.254C27.5748 17.6048 27.3673 17.8445 27.2679 17.9731C27.0612 18.2381 27.0878 18.6162 27.3292 18.8499C27.5133 18.9868 27.7407 19.0522 27.9693 19.034H32.0379C32.2324 19.0496 32.4257 18.9935 32.5816 18.8762C32.6975 18.7711 32.7616 18.6205 32.757 18.4641C32.761 18.3009 32.6938 18.144 32.5728 18.0344Z" fill="white"/>
<path d="M41.7719 13.1065C41.5812 12.9542 41.3401 12.8791 41.0967 12.8961H37.3876L40.8512 9.02916L41.1756 8.66966L41.3861 8.41537C41.4439 8.33404 41.4911 8.24559 41.5264 8.15231C41.5661 8.0518 41.5869 7.94472 41.5877 7.83665C41.6122 7.58093 41.4855 7.33432 41.2633 7.20531C40.9751 7.07313 40.6591 7.01295 40.3426 7.02994H35.9934C35.7637 7.01427 35.5361 7.08288 35.3533 7.22285C35.2023 7.35142 35.1182 7.54191 35.1253 7.74019C35.1253 8.03832 35.2247 8.2195 35.4235 8.28384C35.7084 8.36484 36.0043 8.40035 36.3003 8.38906H39.1062C38.9893 8.55271 38.8374 8.74561 38.6503 8.96779L37.9225 9.79203L36.9755 10.8442L35.8443 12.0981C35.4527 12.5366 35.1955 12.8289 35.0727 12.975C34.7943 13.3131 34.829 13.81 35.1516 14.1061C35.3829 14.2804 35.6696 14.3645 35.9583 14.3429H41.0704C41.3179 14.374 41.5681 14.3114 41.7719 14.1675C41.9208 14.0374 42.0043 13.8479 41.9998 13.6502C42.0074 13.4442 41.924 13.2454 41.7719 13.1065Z" fill="white"/>
<path d="M38.7463 27.8727C38.4965 27.6142 38.1142 27.5341 37.7818 27.671C28.278 31.6053 17.3844 27.0903 13.45 17.5865C11.4522 12.7604 11.5728 7.31712 13.7824 2.58431C13.9894 2.14654 13.8023 1.62383 13.3645 1.41678C13.1398 1.31046 12.8805 1.30465 12.6512 1.40056C2.23192 5.68058 -2.74499 17.5968 1.53504 28.0161C5.81506 38.4354 17.7313 43.4123 28.1507 39.1323C32.9028 37.1802 36.7432 33.5067 38.9043 28.8459C39.0563 28.5199 38.9937 28.134 38.7463 27.8727ZM20.4114 38.9211C10.1109 38.9193 1.76214 30.5677 1.7639 20.2672C1.76499 13.5036 5.42782 7.27075 11.3359 3.9785C10.6363 6.05511 10.2809 8.23211 10.2837 10.4234C10.2843 21.6923 19.4201 30.8273 30.6891 30.8267C32.5777 30.8266 34.4571 30.5643 36.2736 30.0473C32.8731 35.5457 26.8763 38.9004 20.4114 38.9211Z" fill="white"/>
</g>
<defs>
<clipPath id="clip0_3134_2144">
<rect width="42" height="42" fill="white"/>
</clipPath>
</defs>
</svg>
