<svg width="28" height="48" viewBox="0 0 28 48" fill="none" xmlns="http://www.w3.org/2000/svg">
<path d="M23.7507 7.13891C23.7507 8.15557 23.3468 9.13059 22.6279 9.84948C21.909 10.5684 20.934 10.9722 19.9173 10.9722C18.9007 10.9722 17.9256 10.5684 17.2067 9.84948C16.4879 9.13059 16.084 8.15557 16.084 7.13891C16.084 6.12224 16.4879 5.14722 17.2067 4.42833C17.9256 3.70944 18.9007 3.30557 19.9173 3.30557C20.934 3.30557 21.909 3.70944 22.6279 4.42833C23.3468 5.14722 23.7507 6.12224 23.7507 7.13891Z" stroke="white" stroke-width="1.5"/>
<path d="M19.5596 31.4167L21.972 30.0214C24.7193 28.4318 26.0916 27.637 26.2756 26.5049C26.3028 26.3283 26.3113 26.1493 26.3012 25.9708C26.2092 24.831 24.9058 23.9519 22.3017 22.1937L10.2727 14.0747C5.54748 10.8854 4.46137 5.06892 7.77848 0.750031" stroke="white" stroke-width="1.5" stroke-linecap="round" stroke-linejoin="round"/>
<path d="M10.272 14.0747C3.88311 20.4636 0.75 38.1429 0.75 46.75M10.272 14.0747C5.54678 10.8854 4.46067 5.06892 7.77778 0.750031M10.272 14.0747L17.034 18.6389M19.5589 31.4167L21.9713 30.0214C24.7186 28.4318 26.0909 27.637 26.2749 26.5049C26.3021 26.3283 26.3106 26.1493 26.3004 25.9708C26.2084 24.831 24.9051 23.9519 22.301 22.1937L17.0366 18.6389C15.2644 20.9324 13.7477 23.4123 12.5132 26.0347C11.3888 28.4037 10.8291 29.5869 10.9339 30.9414L3.30556 28.8611M21.1944 46.75C18.7079 43.8495 16.1498 39.85 13.6556 36.1649C11.9101 33.5838 11.0361 32.2907 10.9339 30.9388" stroke="white" stroke-width="1.5" stroke-linecap="round" stroke-linejoin="round"/>
</svg>
